<svg width="42" height="17" viewBox="0 0 42 17" fill="none" xmlns="http://www.w3.org/2000/svg">
<path d="M7.67419 2.19172C7.18195 2.76594 6.39436 3.21884 5.60677 3.15414C5.50832 2.37774 5.89391 1.55281 6.34513 1.04329C6.83738 0.452902 7.6988 0.0323501 8.39615 0C8.47819 0.808754 8.15823 1.60133 7.67419 2.19172ZM8.38795 3.3078C7.24758 3.2431 6.2713 3.94672 5.72983 3.94672C5.18016 3.94672 4.35155 3.34015 3.4491 3.35633C2.27592 3.3725 1.18478 4.02759 0.585881 5.07089C-0.644729 7.15747 0.265922 10.2469 1.45551 11.9453C2.038 12.7864 2.73535 13.7084 3.6542 13.676C4.52383 13.6437 4.8684 13.118 5.91852 13.118C6.97685 13.118 7.2804 13.676 8.19925 13.6598C9.15092 13.6437 9.74982 12.8187 10.3323 11.9776C10.9968 11.0233 11.2676 10.0932 11.284 10.0447C11.2676 10.0285 9.44627 9.3411 9.42986 7.27069C9.41345 5.53996 10.8656 4.71503 10.9312 4.66651C10.1108 3.46955 8.83097 3.34015 8.38795 3.3078ZM14.9758 0.962417V13.5709H16.9612V9.26023H19.7096C22.22 9.26023 23.9839 7.56185 23.9839 5.10324C23.9839 2.64462 22.2528 0.962417 19.7752 0.962417H14.9758ZM16.9612 2.61227H19.2501C20.973 2.61227 21.9575 3.51808 21.9575 5.11132C21.9575 6.70457 20.973 7.61846 19.2419 7.61846H16.9612V2.61227ZM27.6101 13.6679C28.8571 13.6679 30.0139 13.0452 30.5389 12.0585H30.5799V13.5709H32.4177V7.29496C32.4177 5.47526 30.9409 4.30257 28.6684 4.30257C26.5599 4.30257 25.0012 5.49144 24.9437 7.12512H26.7322C26.8799 6.34872 27.6101 5.8392 28.611 5.8392C29.8252 5.8392 30.5061 6.39724 30.5061 7.42436V8.11989L28.0285 8.26546C25.7231 8.40295 24.4761 9.33302 24.4761 10.9505C24.4761 12.5842 25.7642 13.6679 27.6101 13.6679ZM28.1433 12.1717C27.085 12.1717 26.4123 11.6703 26.4123 10.902C26.4123 10.1094 27.0604 9.64843 28.2992 9.57564L30.5061 9.43815V10.1499C30.5061 11.3306 29.4888 12.1717 28.1433 12.1717ZM34.8707 17C36.8068 17 37.7175 16.2721 38.5133 14.0642L42 4.42388H39.9818L37.6436 11.8725H37.6026L35.2645 4.42388H33.1888L36.5525 13.6032L36.372 14.1613C36.0685 15.1075 35.5762 15.4715 34.6984 15.4715C34.5425 15.4715 34.239 15.4553 34.1159 15.4391V16.9515C34.2307 16.9838 34.723 17 34.8707 17Z" fill="#F5F6F8"/>
</svg>
