<svg width="30" height="27" viewBox="0 0 30 27" fill="none" xmlns="http://www.w3.org/2000/svg">
<path d="M0.503906 9.76553C0.503906 10.6674 1.23498 11.3984 2.13681 11.3984L24.0414 11.3984C24.9432 11.3984 25.6743 10.6674 25.6743 9.76554C25.6743 8.86371 24.9432 8.13263 24.0414 8.13263L2.13681 8.13263C1.23498 8.13263 0.503906 8.86371 0.503906 9.76553Z" fill="black"/>
<path d="M16.6846 16.4312C19.8389 15.5469 22.9249 13.5777 25.4712 11.7219C26.1909 11.1974 26.9867 10.6068 27.4719 9.89953" stroke="black" stroke-width="3.24951" stroke-linecap="round" stroke-linejoin="round"/>
<path d="M27.4729 9.90039C23.6658 9.09452 20.7275 6.22498 17.7632 3.98489C16.9569 3.37563 23.0493 8.57776 22.0793 8.26749" stroke="black" stroke-width="3.24951" stroke-linecap="round" stroke-linejoin="round"/>
</svg>
