<svg width="24" height="26" viewBox="0 0 24 26" fill="none" xmlns="http://www.w3.org/2000/svg">
<path d="M18.6033 8.02316C18.376 7.81361 18.0781 7.69727 17.769 7.69727H5.23103C4.92186 7.69727 4.62401 7.8136 4.39668 8.02315C4.14383 8.25622 4 8.58442 4 8.9283V16.8366C4 17.1805 4.14383 17.5087 4.39667 17.7417C4.624 17.9513 4.92187 18.0676 5.23105 18.0676L17.769 18.067C18.0781 18.067 18.376 17.9507 18.6033 17.7411C18.8562 17.508 19 17.1798 19 16.8359V8.92831C19 8.58443 18.8562 8.25623 18.6033 8.02316ZM6.24993 15.993V14.6106H9.25007V15.993H6.24993ZM17.4996 11.8451H5.50043V10.4627H17.4996V11.8451Z" fill="#28392A"/>
</svg>
