<svg width="21" height="19" viewBox="0 0 21 19" fill="none" xmlns="http://www.w3.org/2000/svg">
<path d="M0.16711 10.1143C0.16711 11.0188 0.87794 11.7284 1.78128 11.7284L6.62503 11.7296C6.88296 11.7296 7.78753 12.1171 7.0767 13.2155C6.62503 14.0546 6.62503 17.22 6.62503 17.22C6.62503 18.1234 7.33586 18.833 8.2392 18.833C9.14378 18.833 9.85458 18.1234 9.85458 17.2188C9.85458 12.5047 14.375 11.083 14.375 11.083V2.68759C12.3079 1.97676 11.7921 0.75009 9.20792 0.75009H4.36417C3.45959 0.75009 2.75 1.46092 2.75 2.36426C2.75 2.75176 2.87957 3.07509 3.07333 3.33301C2.16875 3.33301 1.45916 4.04384 1.45916 4.94718C1.45916 5.33468 1.58873 5.72218 1.84666 6.04551C1.20124 6.30344 0.813739 6.88468 0.813739 7.53134C0.813739 7.91884 0.94331 8.30634 1.20124 8.62967C0.61878 8.82342 0.16711 9.40467 0.16711 10.1143V10.1143Z" fill="#E0632B"/>
<path d="M17.6047 12.375H20.833V1.39542H17.6034C16.5051 1.39542 15.6659 2.3 15.6659 3.33292L15.6671 10.4375C15.6671 11.5358 16.5063 12.375 17.6046 12.375H17.6047Z" fill="#E0632B"/>
</svg>
