<svg width="21" height="19" viewBox="0 0 21 19" fill="none" xmlns="http://www.w3.org/2000/svg">
<path d="M20.6659 8.71875C20.6659 7.81417 19.9551 7.10458 19.0517 7.10458L14.208 7.10337C13.95 7.10337 13.0455 6.71587 13.7563 5.61754C14.208 4.77837 14.208 1.61296 14.208 1.61296C14.208 0.70959 13.4971 0 12.5938 0C11.6892 0 10.9784 0.709621 10.9784 1.61417C10.9784 6.32834 6.45801 7.75 6.45801 7.75V16.1454C8.52509 16.8562 9.04093 18.0829 11.6251 18.0829H16.4688C17.3734 18.0829 18.083 17.3721 18.083 16.4687C18.083 16.0812 17.9534 15.7579 17.7597 15.5C18.6643 15.5 19.3738 14.7892 19.3738 13.8858C19.3738 13.4983 19.2443 13.1108 18.9863 12.7875C19.6318 12.5296 20.0193 11.9483 20.0193 11.3017C20.0193 10.9142 19.8897 10.5267 19.6318 10.2033C20.2142 10.0096 20.6659 9.42834 20.6659 8.71872V8.71875Z" fill="#A2E88A"/>
<path d="M3.22834 6.45801H0V17.4376H3.22958C4.32791 17.4376 5.16708 16.533 5.16708 15.5001L5.16587 8.39551C5.16587 7.29718 4.3267 6.45801 3.22837 6.45801H3.22834Z" fill="#A2E88A"/>
</svg>
