<svg width="32" height="20" viewBox="0 0 32 20" fill="none" xmlns="http://www.w3.org/2000/svg">
<path d="M1 13.6748C5.59378 16.6231 16.2 21.0981 28.2 14.8469" stroke="black" stroke-width="2" stroke-linecap="round" stroke-linejoin="round"/>
<path d="M1 13.6733L3 6.25" stroke="black" stroke-width="2" stroke-linecap="round"/>
<path d="M31 13.5965L28.6 4.21973" stroke="black" stroke-width="2" stroke-linecap="round"/>
<path d="M25.9508 6.441C25.8327 6.441 25.7204 6.38803 25.6468 6.29723C25.5732 6.20737 25.5461 6.0882 25.5732 5.97565C25.5964 5.87349 25.7669 4.92195 24.5293 4.35823C23.6655 3.96664 22.8656 4.85575 22.8579 4.86522C22.7562 4.98061 22.5925 5.02601 22.4434 4.97778C22.2952 4.93048 22.1897 4.79995 22.1781 4.64767C22.1781 4.60416 22.0716 3.55615 21.1884 3.40104C20.6558 3.30646 19.9334 4.00261 19.7223 4.25419C19.6322 4.36202 19.4899 4.41404 19.3495 4.38756C19.21 4.36202 19.0958 4.26365 19.0522 4.13123C19.0386 4.08961 18.6861 3.07565 17.7856 3.07565C17.2936 3.07565 16.6758 3.69613 16.4976 3.91367C16.4076 4.02433 16.2604 4.0773 16.118 4.04892C15.9757 4.02149 15.8614 3.91745 15.8217 3.78124C15.812 3.74908 15.5545 2.93564 14.7894 2.93564H14.7584C14.5444 2.93564 14.3711 2.76633 14.3711 2.5573C14.3711 2.34827 14.5444 2.17896 14.7584 2.17896C15.3918 2.16855 15.9815 2.48919 16.3078 3.01889C16.6642 2.69919 17.2103 2.31707 17.7933 2.31707C18.7036 2.31707 19.2478 2.89971 19.5364 3.35941C19.9528 2.98107 20.6267 2.52894 21.3356 2.65379C22.0183 2.79094 22.5732 3.27427 22.792 3.92124C23.2665 3.59966 24.018 3.28563 24.8566 3.66586C26.3343 4.33741 26.466 5.58026 26.3285 6.14391C26.2898 6.317 26.1329 6.44092 25.9508 6.44092L25.9508 6.441Z" fill="black"/>
<path d="M10.5064 4.25593C10.3767 4.25688 10.2556 4.19351 10.183 4.08946C10.1114 3.98447 10.0968 3.8511 10.1462 3.73381C10.2043 3.58436 10.7543 2.26773 11.8254 2.20908C12.9467 2.15044 13.458 3.36871 13.4793 3.41978C13.551 3.61179 13.4542 3.82461 13.2595 3.90122C13.0658 3.97689 12.845 3.88893 12.7608 3.70165C12.7608 3.70165 12.4316 2.94496 11.8699 2.96387C11.378 2.99036 10.9713 3.74327 10.8686 4.00432C10.8144 4.15377 10.6691 4.25498 10.5064 4.25593L10.5064 4.25593Z" fill="black"/>
<path d="M7.70149 5.10584C7.49329 5.10584 7.32287 4.94599 7.31414 4.74264C7.28896 4.14484 7.54461 2.96633 8.70472 2.77714C8.91583 2.7412 9.11629 2.88024 9.15308 3.08643C9.18988 3.29262 9.04753 3.48843 8.83643 3.52436C8.06174 3.65111 8.09079 4.70101 8.09079 4.71234C8.09951 4.92043 7.93392 5.09635 7.72087 5.10582L7.70149 5.10584Z" fill="black"/>
<path d="M28.4 3.90701C28.4 3.96521 28.345 4.24377 27.7563 4.67801C27.202 5.08693 26.3402 5.50317 25.1996 5.86238C22.9344 6.5758 19.7656 7.00329 16.2781 6.81677C12.487 6.42657 9.26462 5.99562 7.001 5.40867C5.85947 5.11267 5.04033 4.796 4.52756 4.4723C4.00662 4.14345 4 3.94354 4 3.90701C4 3.85859 4.03841 3.60599 4.61067 3.20554C5.15462 2.82488 6.00687 2.44157 7.15 2.10322C9.42328 1.43036 12.6232 1 16.2 1C19.7768 1 22.9767 1.43036 25.25 2.10322C26.3931 2.44157 27.2454 2.82488 27.7893 3.20554C28.3616 3.60599 28.4 3.85859 28.4 3.90701Z" stroke="black" stroke-width="2"/>
</svg>
